<svg xmlns="http://www.w3.org/2000/svg" width="762.652" height="762.652" viewBox="0 0 762.652 762.652">
  <path id="Path_40" data-name="Path 40" d="M778.623,307.08c29,39.164,75.792,5.551,119.968,21.4s32.056,28.013,67.669,33.676,60.727-32.887,94.574-33.676,41.579,22,75.7,30.921,162.09-26.979,206.392,70.792,56.627,214.8-19.653,333.8-178.6,148.8-285.466,142.23-150.371-121.4-151.549-182.014-32.045-62.53-43.645-106.6,17.356-63.238,12.268-95.008-32.218-27.911-45.372-60.376-1.754-36.835-2.34-69.9S775.168,351.412,778.623,307.08Z" transform="translate(-543.758 1203.287) rotate(-71)" fill="#fff"/>
</svg>
