<svg xmlns="http://www.w3.org/2000/svg" xmlns:xlink="http://www.w3.org/1999/xlink" width="632.82" height="611.388" viewBox="0 0 632.82 611.388">
  <defs>
    <filter id="Intersection_1" x="0" y="0" width="632.82" height="611.388" filterUnits="userSpaceOnUse">
      <feOffset dy="3" input="SourceAlpha"/>
      <feGaussianBlur stdDeviation="3" result="blur"/>
      <feFlood flood-opacity="0.161"/>
      <feComposite operator="in" in2="blur"/>
      <feComposite in="SourceGraphic"/>
    </filter>
  </defs>
  <g transform="matrix(1, 0, 0, 1, 0, 0)" filter="url(#Intersection_1)">
    <path id="Intersection_1-2" data-name="Intersection 1" d="M197.095-5885.838c-46.886-16.879-35.466-41.459-65.6-77.4s-71.987-34.079-81.486-67.575S74.334-6082.482,68.1-6131.3s-43.927-63.766-39.484-96.127,35.92-33.952,57.413-67.242-5.935-73.452,18.361-97.4,75.447-10.452,110.112-24.067,55.864-59.29,103.912-59.29,47.354,41.432,91.3,43.59c18.093.888,32.338-1.61,44.346-4.106,17.157-3.569,29.747-7.136,42.469-.831,21.628,10.718,15.044,52.864,48.5,86.388s69.9,16.838,85.328,47.708-20.727,62.912-18.4,107.447,33.461,42.609,30.968,78.613-33.688,34.176-50.431,75.094,3.185,64.947-16.539,88.58-37.87,4.019-79.432,20.794-53.959,45.854-86.815,46.3-34.267-23.94-91.3-25.957c-24.615-.871-41.848,6.988-57.255,14.848-14.618,7.458-27.594,14.915-43.67,14.915A59.667,59.667,0,0,1,197.095-5885.838Z" transform="translate(-19.26 6481.42)" fill="#fff"/>
  </g>
</svg>
