<svg xmlns="http://www.w3.org/2000/svg" width="24.592" height="24" viewBox="0 0 24.592 24">
  <path id="icon_github" d="M8.238,20.046c0,.082-.123.164-.246.164-.164,0-.287-.082-.287-.164s.123-.164.246-.164C8.116,19.841,8.238,19.923,8.238,20.046ZM6.681,19.8c-.041.082.082.2.2.246s.287,0,.287-.082c.041-.082-.082-.2-.2-.246a.2.2,0,0,0-.287.082Zm2.213-.082q-.246.061-.246.246c0,.082.164.164.287.123q.246-.061.246-.246A.319.319,0,0,0,8.894,19.718ZM12.132.7A11.9,11.9,0,0,0,0,12.832,12.38,12.38,0,0,0,8.4,24.678a.642.642,0,0,0,.861-.615V21.03s-3.484.738-4.181-1.476c0,0-.574-1.435-1.394-1.8,0,0-1.148-.779.082-.779A2.6,2.6,0,0,1,5.7,18.243,2.594,2.594,0,0,0,9.3,19.267a3.066,3.066,0,0,1,.779-1.68C7.3,17.3,4.509,16.931,4.509,12.136A3.659,3.659,0,0,1,5.7,9.225,4.829,4.829,0,0,1,5.82,5.864c1.025-.328,3.4,1.353,3.4,1.353a11.2,11.2,0,0,1,3.115-.41,12.974,12.974,0,0,1,3.115.41s2.377-1.68,3.4-1.353a4.589,4.589,0,0,1,.123,3.361,3.858,3.858,0,0,1,1.271,2.91c0,4.8-2.91,5.164-5.7,5.492a3,3,0,0,1,.861,2.3v4.14c0,.328.246.7.861.615a12.309,12.309,0,0,0,8.32-11.845A12.179,12.179,0,0,0,12.132.7Zm-7.3,17.133c-.082.041-.041.164.041.246s.2.123.246.041c.082-.041.041-.164-.041-.246S4.878,17.751,4.837,17.833Zm-.533-.41c-.041.082,0,.164.123.2.082.041.164.041.2-.041s0-.164-.123-.2S4.3,17.382,4.3,17.423Zm1.6,1.762c-.082.082-.041.2.082.328s.246.123.328.041.041-.2-.082-.328S5.943,19.1,5.9,19.185Zm-.574-.738c-.082.041-.082.164,0,.287a.24.24,0,0,0,.287.123.248.248,0,0,0,0-.328.272.272,0,0,0-.287-.082Z" transform="translate(0 -0.7)" fill="#fff"/>
</svg>
