<svg xmlns="http://www.w3.org/2000/svg" xmlns:xlink="http://www.w3.org/1999/xlink" width="159.974" height="136.186" viewBox="0 0 159.974 136.186">
  <defs>
    <linearGradient id="linear-gradient" x1="0.5" x2="0.5" y2="1" gradientUnits="objectBoundingBox">
      <stop offset="0" stop-color="#0ab2e4"/>
      <stop offset="1" stop-color="#c1f1ff"/>
      <stop offset="1" stop-color="#04b0e3"/>
    </linearGradient>
    <linearGradient id="linear-gradient-3" x1="0.5" x2="0.5" y2="1" gradientUnits="objectBoundingBox">
      <stop offset="0" stop-color="#e5991f"/>
      <stop offset="1" stop-color="#ffedd0"/>
    </linearGradient>
    <linearGradient id="linear-gradient-6" x1="0.5" x2="0.5" y2="1" gradientUnits="objectBoundingBox">
      <stop offset="0" stop-color="#702296"/>
      <stop offset="1" stop-color="#bd8bd6"/>
    </linearGradient>
  </defs>
  <g id="Group_19" data-name="Group 19" transform="translate(-63.391 566.928) rotate(-120)">
    <path id="Path_49" data-name="Path 49" d="M323.014,355.8s-27.3,4.646-15.975,52.055a2.188,2.188,0,0,0,3.716.989l17.967-23.315Z" transform="translate(0 24.075)" fill="url(#linear-gradient)"/>
    <path id="Path_50" data-name="Path 50" d="M364.775,355.8s27.3,4.646,15.975,52.055a2.188,2.188,0,0,1-3.716.989l-17.967-23.315Z" transform="translate(20.79 24.075)" fill="url(#linear-gradient)"/>
    <path id="Path_51" data-name="Path 51" d="M324.2,315.766c-8.578,19.341-13.179,47.366-.673,84.735h52.2c12.456-37.124,7.982-65.021-.5-84.347a114.229,114.229,0,0,1-51.018-.388Z" transform="translate(4.383 8.883)" fill="url(#linear-gradient-3)"/>
    <path id="Path_52" data-name="Path 52" d="M323.771,383.819a3.592,3.592,0,0,0,3.37,2.268h40.729a3.591,3.591,0,0,0,3.369-2.265q1.275-3.365,2.367-6.633h-52.2Q322.5,380.459,323.771,383.819Z" transform="translate(6.499 32.194)" fill="#c1f1ff"/>
    <path id="Path_53" data-name="Path 53" d="M349.64,293.2a3.653,3.653,0,0,0-4.659,0,88.339,88.339,0,0,0-23.082,31.45,114.229,114.229,0,0,0,51.018.388A88.77,88.77,0,0,0,349.64,293.2Z" transform="translate(6.684 0)" fill="url(#linear-gradient)"/>
    <circle id="Ellipse_39" data-name="Ellipse 39" cx="17.934" cy="17.934" r="17.934" transform="translate(337 338.767)" fill="url(#linear-gradient)"/>
    <path id="Path_55" data-name="Path 55" d="M13.105,0A13.105,13.105,0,1,1,0,13.105,13.105,13.105,0,0,1,13.105,0Z" transform="translate(341.828 343.595)" fill="url(#linear-gradient-6)"/>
    <path id="Path_54" data-name="Path 54" d="M343.958,412.128c-.433,2.231-3,2.231-3.431,0C337.321,395.59,331.652,360,342.243,360S347.164,395.59,343.958,412.128Z" transform="translate(12.078 25.671)" fill="url(#linear-gradient)"/>
  </g>
</svg>
